<svg xmlns="http://www.w3.org/2000/svg" width="110.317" height="34.813" viewBox="0 0 110.317 34.813"><defs><style>.a{fill:#00b592;}.b{fill:#009276;}.c{fill:#334565;}</style></defs><g transform="translate(-354.667 -189.667)"><g transform="translate(354.667 189.667)"><path class="a" d="M382.347,217.2v4.225a1.024,1.024,0,0,1-1.02,1.02H357.72a1.024,1.024,0,0,1-1.02-1.02V221h21.317l-5.06-5.122-1.631,1.63a.577.577,0,0,1-.955-.224l-3.26-9.784a.576.576,0,0,1,.729-.729l9.783,3.261a.576.576,0,0,1,.225.954l-1.631,1.631,4.491,4.546V191.7a2.031,2.031,0,0,0-2.033-2.033H356.7a2.036,2.036,0,0,0-2.033,2.033v29.727a3.059,3.059,0,0,0,3.053,3.053h23.607a3.06,3.06,0,0,0,3.053-3.053V217.2Zm-16.818-7.113-2.446,2.446a.577.577,0,1,1-.815-.815l2.446-2.446a.577.577,0,0,1,.815.815Zm4.076-5.707,2.446-2.445a.577.577,0,1,1,.815.815l-2.446,2.445a.577.577,0,0,1-.815-.815Zm-2.614-4.064a.576.576,0,1,1,1.152,0v3.459a.576.576,0,1,1-1.152,0Zm-4.723,1.619a.576.576,0,0,1,.815,0l2.446,2.445a.577.577,0,0,1-.815.815l-2.446-2.446A.577.577,0,0,1,362.268,201.931Zm-1.618,4.723h3.459a.576.576,0,1,1,0,1.153h-3.459a.576.576,0,0,1,0-1.153Z" transform="translate(-354.667 -189.667)"/><path class="b" d="M422.886,216.821h-2.715v5.97h2.715a1.22,1.22,0,0,0,1.221-1.221v-3.527a1.221,1.221,0,0,0-1.221-1.222Zm0,0" transform="translate(-392.427 -205.32)"/><path class="b" d="M422.886,235.564h-2.715v5.97h2.715a1.22,1.22,0,0,0,1.221-1.222v-3.527a1.22,1.22,0,0,0-1.221-1.221Zm0,0" transform="translate(-392.427 -216.124)"/><path class="b" d="M422.886,198.079h-2.715v5.97h2.715a1.22,1.22,0,0,0,1.221-1.221V199.3a1.221,1.221,0,0,0-1.221-1.222Zm0,0" transform="translate(-392.427 -194.516)"/></g><g transform="translate(396.006 193.158)"><path class="c" d="M461.619,208.6a4.162,4.162,0,0,1-.958,2.575,3.6,3.6,0,0,1-1.513,1.043,6.358,6.358,0,0,1-2.377.4H454.78v5.13h-3.214V204.563h5.205a5.055,5.055,0,0,1,3.57,1.184A3.752,3.752,0,0,1,461.619,208.6Zm-6.839,1.579h1.991a1.472,1.472,0,0,0,1.578-1.569,1.6,1.6,0,0,0-.432-1.156,1.514,1.514,0,0,0-1.146-.451H454.78Z" transform="translate(-450.705 -203.623)"/><path class="c" d="M477.747,209.645V211.6a3.377,3.377,0,0,1,3.007-2.067V212.8h-.79a2.333,2.333,0,0,0-1.663.526,2.481,2.481,0,0,0-.554,1.842v4.96h-3.213V209.645Z" transform="translate(-461.684 -205.999)"/><path class="c" d="M489.945,218.777a5.1,5.1,0,0,1-1.588-3.909,5.023,5.023,0,0,1,1.579-3.88,5.961,5.961,0,0,1,7.808,0,5.04,5.04,0,0,1,1.569,3.88,5.147,5.147,0,0,1-1.56,3.909,5.423,5.423,0,0,1-3.89,1.484A5.524,5.524,0,0,1,489.945,218.777Zm5.459-1.936a2.743,2.743,0,0,0,.639-1.954,2.657,2.657,0,0,0-.658-1.945,2.114,2.114,0,0,0-1.559-.667,2.086,2.086,0,0,0-1.551.667,3.221,3.221,0,0,0,.019,3.9,2.134,2.134,0,0,0,1.569.676A2.042,2.042,0,0,0,495.4,216.842Z" transform="translate(-468.292 -205.999)"/><path class="c" d="M515.38,224.86a1.735,1.735,0,1,1-.508-1.249A1.7,1.7,0,0,1,515.38,224.86Z" transform="translate(-479.529 -212.486)"/><path class="c" d="M522.018,212.845a2.693,2.693,0,0,1,1.052-2.152,4.064,4.064,0,0,1,2.688-.874,3.577,3.577,0,0,1,2.546.855,3.381,3.381,0,0,1,1,2.358h-1.352a2.145,2.145,0,0,0-2.311-2.161,2.5,2.5,0,0,0-1.682.526,1.62,1.62,0,0,0-.611,1.269,1.551,1.551,0,0,0,.451,1.174,2.32,2.32,0,0,0,1.137.582q.686.151,1.484.358t1.485.441a2.33,2.33,0,0,1,1.136.846,2.57,2.57,0,0,1,.452,1.569,2.445,2.445,0,0,1-1.034,2.029,4.352,4.352,0,0,1-2.715.79,3.871,3.871,0,0,1-2.659-.864,3.269,3.269,0,0,1-1.071-2.349h1.352a2.17,2.17,0,0,0,.677,1.56,2.463,2.463,0,0,0,1.757.6,2.783,2.783,0,0,0,1.739-.479,1.486,1.486,0,0,0,.62-1.23,1.566,1.566,0,0,0-.45-1.184,2.394,2.394,0,0,0-1.137-.592q-.686-.16-1.485-.366t-1.484-.432a2.278,2.278,0,0,1-1.588-2.273Z" transform="translate(-484.382 -206.136)"/><path class="c" d="M542.52,217.1h-1.315V203.2h1.315v8.23l4.134-4.585h1.9l-4.98,5.074,4.98,5.186h-1.8l-4.228-4.6Z" transform="translate(-493.554 -202.97)"/><path class="c" d="M559.718,203.731a.949.949,0,0,1-.273.685.9.9,0,0,1-.676.282.968.968,0,1,1,0-1.936.9.9,0,0,1,.676.282A.953.953,0,0,1,559.718,203.731Zm-1.635,13.163v-10.26H559.4v10.26Z" transform="translate(-501.487 -202.763)"/><path class="c" d="M566.261,217.1V203.2h1.315v13.9Z" transform="translate(-505.531 -202.97)"/><path class="c" d="M574.18,217.1V203.2h1.315v13.9Z" transform="translate(-509.317 -202.97)"/><path class="c" d="M449.916,246.534h1.813a1.749,1.749,0,0,1,1.2.376,1.238,1.238,0,0,1,.423.969,1.121,1.121,0,0,1-.972,1.118,1.273,1.273,0,0,1,1.089,1.265,1.2,1.2,0,0,1-.449.958,1.8,1.8,0,0,1-1.2.379h-1.9Zm.665.533v1.666H451.7a1.068,1.068,0,0,0,.72-.223.758.758,0,0,0,.259-.607.769.769,0,0,0-.259-.61,1.059,1.059,0,0,0-.72-.227Zm0,4.005h1.2a1.107,1.107,0,0,0,.757-.242.837.837,0,0,0,.273-.661.808.808,0,0,0-.3-.661,1.206,1.206,0,0,0-.786-.241h-1.148Z" transform="translate(-449.916 -223.686)"/><path class="c" d="M462.4,248.55h.666v4.012H462.4v-.643a1.386,1.386,0,0,1-1.308.709,1.514,1.514,0,0,1-1.111-.442,1.687,1.687,0,0,1-.446-1.254V248.55h.658v2.273a1.3,1.3,0,0,0,.3.917,1.184,1.184,0,0,0,1.615,0,1.3,1.3,0,0,0,.3-.917Z" transform="translate(-454.514 -224.65)"/><path class="c" d="M470.073,246.357a.437.437,0,0,1-.321.132.425.425,0,0,1-.318-.132.444.444,0,0,1-.128-.322.439.439,0,0,1,.132-.322.451.451,0,0,1,.635,0,.459.459,0,0,1,0,.644Zm-.657,4.787v-4.012h.665v4.012Z" transform="translate(-459.185 -223.231)"/><path class="c" d="M474.01,251.283v-5.408h.665v5.408Z" transform="translate(-461.433 -223.371)"/><path class="c" d="M478.548,250.761a2.123,2.123,0,0,1-.548-1.505,2.051,2.051,0,0,1,.544-1.483,1.821,1.821,0,0,1,1.37-.566,1.646,1.646,0,0,1,.9.241,1.582,1.582,0,0,1,.581.628v-2.2h.672v5.408h-.672v-.819a1.594,1.594,0,0,1-.581.64,1.63,1.63,0,0,1-.9.244A1.792,1.792,0,0,1,478.548,250.761Zm2.444-.391a1.688,1.688,0,0,0,0-2.178,1.289,1.289,0,0,0-.957-.409,1.312,1.312,0,0,0-.957.395,1.446,1.446,0,0,0-.4,1.074,1.539,1.539,0,0,0,.4,1.1,1.3,1.3,0,0,0,1.911.015Z" transform="translate(-463.341 -223.371)"/><path class="c" d="M495.8,251.6h-.666v-1.915l-1.652-3.15h.731l1.249,2.536,1.242-2.536h.738l-1.644,3.15Z" transform="translate(-470.742 -223.686)"/><path class="c" d="M503.5,252a2.067,2.067,0,0,1-.552-1.5,2.022,2.022,0,0,1,.578-1.5,2.112,2.112,0,0,1,2.894,0,2.019,2.019,0,0,1,.577,1.5,1.977,1.977,0,0,1-.6,1.5,2.059,2.059,0,0,1-1.473.573A1.893,1.893,0,0,1,503.5,252Zm1.422.022a1.345,1.345,0,0,0,.976-.406,1.5,1.5,0,0,0,.413-1.122,1.527,1.527,0,0,0-.395-1.118,1.3,1.3,0,0,0-.961-.4,1.249,1.249,0,0,0-.946.4,1.567,1.567,0,0,0-.381,1.122,1.606,1.606,0,0,0,.365,1.122A1.2,1.2,0,0,0,504.921,252.02Z" transform="translate(-475.266 -224.59)"/><path class="c" d="M516.214,248.55h.665v4.012h-.665v-.643a1.388,1.388,0,0,1-1.308.709,1.514,1.514,0,0,1-1.111-.442,1.689,1.689,0,0,1-.445-1.254V248.55h.657v2.273a1.3,1.3,0,0,0,.3.917,1.184,1.184,0,0,0,1.616,0,1.3,1.3,0,0,0,.3-.917Z" transform="translate(-480.239 -224.65)"/><path class="c" d="M524,248.49v.68a1.249,1.249,0,0,1,1.22-.745v.694h-.175a1.054,1.054,0,0,0-.778.267,1.285,1.285,0,0,0-.267.924V252.5h-.665V248.49Z" transform="translate(-485.01 -224.59)"/><path class="c" d="M534.923,251.6v-5.064h2.85v.533h-2.185v1.717h1.725v.526h-1.725V251.6Z" transform="translate(-490.551 -223.686)"/><path class="c" d="M545.7,248.55h.665v4.012H545.7v-.643a1.387,1.387,0,0,1-1.308.709,1.514,1.514,0,0,1-1.11-.442,1.687,1.687,0,0,1-.446-1.254V248.55h.658v2.273a1.3,1.3,0,0,0,.3.917,1.184,1.184,0,0,0,1.616,0,1.3,1.3,0,0,0,.3-.917Z" transform="translate(-494.332 -224.65)"/><path class="c" d="M553.789,251.111h.548v.541h-.672a.917.917,0,0,1-1.045-1.03V248.18H552.1v-.54h.519v-.994h.672v.994h1.038v.54h-1.038v2.441a.529.529,0,0,0,.11.38A.539.539,0,0,0,553.789,251.111Z" transform="translate(-498.763 -223.74)"/><path class="c" d="M561.7,248.55h.666v4.012H561.7v-.643a1.387,1.387,0,0,1-1.308.709,1.516,1.516,0,0,1-1.111-.442,1.689,1.689,0,0,1-.445-1.254V248.55h.658v2.273a1.3,1.3,0,0,0,.3.917,1.184,1.184,0,0,0,1.616,0,1.3,1.3,0,0,0,.3-.917Z" transform="translate(-501.982 -224.65)"/><path class="c" d="M569.482,248.49v.68a1.249,1.249,0,0,1,1.22-.745v.694h-.175a1.053,1.053,0,0,0-.778.267,1.285,1.285,0,0,0-.267.924V252.5h-.666V248.49Z" transform="translate(-506.753 -224.59)"/><path class="c" d="M576.529,252.567a1.849,1.849,0,0,1-1.4-.569,2.1,2.1,0,0,1-.541-1.506,2.069,2.069,0,0,1,.548-1.5,2.084,2.084,0,0,1,2.824-.029,1.869,1.869,0,0,1,.53,1.37,2.516,2.516,0,0,1-.03.394h-3.194a1.379,1.379,0,0,0,.376.947,1.2,1.2,0,0,0,.888.348,1.24,1.24,0,0,0,.691-.184,1.083,1.083,0,0,0,.413-.482h.716a1.839,1.839,0,0,1-.654.87A1.9,1.9,0,0,1,576.529,252.567Zm.9-3.248a1.31,1.31,0,0,0-1.768-.007,1.359,1.359,0,0,0-.387.932h2.521A1.252,1.252,0,0,0,577.428,249.319Z" transform="translate(-509.51 -224.59)"/></g></g></svg>